<svg version="1.1" xmlns="http://www.w3.org/2000/svg" xmlns:xlink="http://www.w3.org/1999/xlink" width="16" height="16" viewBox="0,0,256,256"><g fill="#ffffff" fill-rule="nonzero" stroke="none" stroke-width="1" stroke-linecap="butt" stroke-linejoin="miter" stroke-miterlimit="10" stroke-dasharray="" stroke-dashoffset="0" font-family="none" font-weight="none" font-size="none" text-anchor="none" style="mix-blend-mode: normal"><g transform="scale(16,16)"><path d="M1,8c0,3.86599 3.13401,7 7,7c3.86599,0 7,-3.13401 7,-7c0,-3.86599 -3.13401,-7 -7,-7c-3.86599,0 -7,3.13401 -7,7M16,8c0,4.41828 -3.58172,8 -8,8c-4.41828,0 -8,-3.58172 -8,-8c0,-4.41828 3.58172,-8 8,-8c4.41828,0 8,3.58172 8,8M8.146,4.992c-1.212,0 -1.927,0.92 -1.927,2.502v1.06c0,1.571 0.703,2.462 1.927,2.462c0.979,0 1.641,-0.586 1.729,-1.418h1.295v0.093c-0.1,1.448 -1.354,2.467 -3.03,2.467c-2.091,0 -3.269,-1.336 -3.269,-3.603v-1.073c0,-2.261 1.201,-3.638 3.27,-3.638c1.681,0 2.935,1.054 3.029,2.572v0.088h-1.295c-0.088,-0.879 -0.768,-1.512 -1.729,-1.512"></path></g></g></svg>