<svg version="1.1" xmlns="http://www.w3.org/2000/svg" xmlns:xlink="http://www.w3.org/1999/xlink" width="16" height="16" viewBox="0,0,256,256"><g fill="#15a5ff" fill-rule="nonzero" stroke="none" stroke-width="1" stroke-linecap="butt" stroke-linejoin="miter" stroke-miterlimit="10" stroke-dasharray="" stroke-dashoffset="0" font-family="none" font-weight="none" font-size="none" text-anchor="none" style="mix-blend-mode: normal"><g transform="translate(0.00353,0.00162) scale(16,16)"><path d="M3.654,1.328c-0.11942,-0.15362 -0.29908,-0.24852 -0.49328,-0.26058c-0.1942,-0.01205 -0.38422,0.05991 -0.52172,0.19758l-1.034,1.035c-0.483,0.484 -0.661,1.169 -0.45,1.77c0.87673,2.48711 2.30115,4.74541 4.168,6.608c1.86259,1.86685 4.12089,3.29127 6.608,4.168c0.601,0.211 1.286,0.033 1.77,-0.45l1.034,-1.034c0.13767,-0.1375 0.20963,-0.32752 0.19758,-0.52172c-0.01205,-0.1942 -0.10696,-0.37386 -0.26058,-0.49328l-2.307,-1.794c-0.16451,-0.12722 -0.37818,-0.17216 -0.58,-0.122l-2.19,0.547c-0.5946,0.14759 -1.22309,-0.0265 -1.657,-0.459l-2.456,-2.457c-0.43285,-0.43371 -0.60734,-1.06222 -0.46,-1.657l0.548,-2.19c0.05016,-0.20182 0.00522,-0.41549 -0.122,-0.58zM1.884,0.511c0.354,-0.35411 0.84305,-0.53909 1.34278,-0.50791c0.49973,0.03119 0.96199,0.27554 1.26922,0.67091l1.794,2.306c0.329,0.423 0.445,0.974 0.315,1.494l-0.547,2.19c-0.05712,0.23071 0.01037,0.4745 0.178,0.643l2.457,2.457c0.16871,0.16798 0.41297,0.23549 0.644,0.178l2.189,-0.547c0.51996,-0.12924 1.07048,-0.01317 1.494,0.315l2.306,1.794c0.829,0.645 0.905,1.87 0.163,2.611l-1.034,1.034c-0.74,0.74 -1.846,1.065 -2.877,0.702c-2.63933,-0.92742 -5.03546,-2.43825 -7.01,-4.42c-1.98163,-1.97425 -3.49245,-4.37003 -4.42,-7.009c-0.362,-1.03 -0.037,-2.137 0.703,-2.877z"></path></g></g></svg>